Coordinates
version=1
nRows=24
nColumns=24
inDegrees=yes

Units are S.I. units (second, meters, Newtons, ...)
Angles are in degrees.

endheader
time	pelvis_tilt	pelvis_list	pelvis_rotation	pelvis_tx	pelvis_ty	pelvis_tz	hip_flexion_r	hip_adduction_r	hip_rotation_r	knee_angle_r	ankle_angle_r	subtalar_angle_r	mtp_angle_r	hip_flexion_l	hip_adduction_l	hip_rotation_l	knee_angle_l	ankle_angle_l	subtalar_angle_l	mtp_angle_l	lumbar_extension	lumbar_bending	lumbar_rotation
      0.56600000	     -1.27339593	      3.68530791	     12.74784245	     -0.81668197	      0.87175691	      0.27324155	     32.73405882	     -5.95260180	    -12.49008330	    -10.27150529	      9.90484965	      1.04389441	      7.62377213	    -21.50410945	      2.86297020	      5.43575746	    -10.83513693	     13.90696955	      4.62867055	     16.62748173	     -5.70205154	     -5.94939347	    -11.69722933
      0.57016667	     -1.22806461	      3.58240074	     12.80096414	     -0.81027124	      0.87110780	      0.27337741	     32.69781706	     -5.78614238	    -12.48529475	    -10.91331157	      9.76795278	      0.82737821	      7.59371395	    -21.61535882	      2.63648513	      5.42608545	    -11.48730861	     13.59040717	      4.53407732	     16.66116668	     -5.63823592	     -5.75649305	    -11.63916434
      0.57433333	     -1.19719432	      3.44812336	     12.82244806	     -0.80382361	      0.87045890	      0.27363686	     32.63976049	     -5.54274970	    -12.32835449	    -11.45572931	      9.40841970	      0.29477249	      7.51800325	    -21.66742743	      2.38022872	      5.29788926	    -12.21181100	     13.33484479	      4.64961373	     16.87230049	     -5.56335475	     -5.52363534	    -11.52089388
      0.57850000	     -1.13210277	      3.28665801	     12.84693263	     -0.79728591	      0.86989751	      0.27389346	     32.52213491	     -5.26738150	    -12.22790440	    -11.96846873	      9.03349218	     -0.17304488	      7.46978356	    -21.74163489	      2.08025490	      5.12137675	    -12.95694679	     13.00917089	      4.77856102	     17.20070299	     -5.50907324	     -5.24990326	    -11.44318117
      0.58266667	     -1.10763047	      3.13323354	     12.87212093	     -0.79070832	      0.86932990	      0.27411913	     32.44585224	     -5.01471185	    -12.15536325	    -12.49317848	      8.64218365	     -0.49719682	      7.46146354	    -21.76862821	      1.80952358	      5.02738141	    -13.70497485	     12.55687163	      4.78577295	     17.41589420	     -5.38855218	     -4.98198257	    -11.37288310
      0.58683333	     -1.06252753	      2.95908610	     12.87246698	     -0.78411382	      0.86879742	      0.27443375	     32.33824651	     -4.70716352	    -11.99800681	    -12.98194172	      8.11841644	     -1.04190955	      7.47373853	    -21.79465610	      1.51302333	      4.86850922	    -14.49196722	     12.15143979	      4.85242072	     17.72822649	     -5.31035043	     -4.69805134	    -11.26003514
      0.59100000	     -0.98057213	      2.77259637	     12.85544278	     -0.77748730	      0.86832420	      0.27481039	     32.19325485	     -4.36354615	    -11.81429001	    -13.46919589	      7.54207358	     -1.71458407	      7.54314703	    -21.83265000	      1.19168802	      4.63389538	    -15.33239744	     11.80630834	      4.98361585	     18.33517051	     -5.27690725	     -4.40672278	    -11.11928488
      0.59516667	     -0.93746344	      2.56015932	     12.87647638	     -0.77078770	      0.86785955	      0.27509669	     32.08740085	     -4.04168042	    -11.78198940	    -13.97515920	      7.00671353	     -2.10370401	      8.46249554	    -21.78460052	      0.83421971	      4.38588846	    -16.22360026	     11.27063787	      5.13870377	     23.64924305	     -5.15863867	     -4.06451142	    -11.01863698
      0.59933333	     -0.90777689	      2.40580009	     12.80304082	     -0.76410257	      0.86739007	      0.27550546	     32.02484856	     -3.72079840	    -11.53320927	    -14.51769449	      6.34957580	     -2.65991654	      8.46918358	    -21.78979672	      0.60423588	      4.28654402	    -17.01538140	     10.66632247	      4.94529655	     23.74249338	     -5.06045150	     -3.81192433	    -10.87503757
      0.60350000	     -0.88390163	      2.20818100	     12.75644644	     -0.75738766	      0.86694578	      0.27591100	     31.96146658	     -3.37008925	    -11.32961306	    -15.04646080	      5.67976092	     -3.24270594	      8.50633678	    -21.71975812	      0.30711101	      4.10859682	    -17.92108447	     10.10257506	      4.94880333	     23.91523321	     -4.93691303	     -3.50234388	    -10.70884476
      0.60766667	     -0.86809007	      2.00853557	     12.69362346	     -0.75065246	      0.86651618	      0.27634068	     31.92399706	     -3.01432294	    -11.11008610	    -15.61036363	      5.00678443	     -3.81422164	      8.56798998	    -21.62079053	      0.01451935	      3.91494033	    -18.85669784	      9.50002465	      4.95899315	     24.15268735	     -4.80285119	     -3.18892960	    -10.53174265
      0.61183333	     -0.85926812	      1.80446998	     12.62178596	     -0.74391305	      0.86609985	      0.27678493	     31.91220312	     -2.65528033	    -10.88170214	    -16.21384352	      4.34440389	     -4.37682924	      8.65046512	    -21.48639027	     -0.27597041	      3.72789351	    -19.84285018	      8.86192263	      4.95431376	     24.45140365	     -4.66263920	     -2.87179024	    -10.34744718
      0.61600000	     -0.86366086	      1.60534006	     12.53634207	     -0.73716777	      0.86569487	      0.27724986	     31.93860287	     -2.30325501	    -10.64318778	    -16.87354227	      3.71172591	     -4.90566434	      8.74270541	    -21.32016239	     -0.55315692	      3.54082610	    -20.85090986	      8.17547511	      4.93380154	     24.78148290	     -4.50686989	     -2.56118127	    -10.15770925
      0.62016667	     -0.85457250	      1.37987076	     12.45709105	     -0.73040234	      0.86532694	      0.27771754	     31.96602112	     -1.93511338	    -10.45117924	    -17.56857364	      3.12240315	     -5.34679692	      9.96592802	    -21.11307869	     -0.88442462	      3.24523295	    -21.93482037	      7.43744020	      5.04621515	     29.00727663	     -4.36456311	     -2.20774082	    -10.03754628
      0.62433333	     -0.87953676	      1.20366687	     12.33527538	     -0.72366769	      0.86495309	      0.27820888	     32.06469123	     -1.60472630	    -10.17190151	    -18.35070843	      2.58885884	     -5.82239811	      9.95504121	    -20.89529236	     -1.10306113	      3.12783486	    -22.98984846	      6.65482327	      4.85343877	     29.05857124	     -4.19887486	     -1.92469396	     -9.78901193
      0.62850000	     -0.90879767	      1.00616024	     12.22051644	     -0.71693659	      0.86458482	      0.27871875	     32.18654384	     -1.26080016	     -9.90674926	    -19.17688035	      2.11960465	     -6.25727616	      9.95102225	    -20.61240848	     -1.36414098	      2.93005882	    -24.14333552	      5.89023565	      4.83020734	     29.15383390	     -4.02790440	     -1.61966071	     -9.57404041
      0.63266667	     -0.94001825	      0.80958888	     12.09735173	     -0.71021234	      0.86423538	      0.27924879	     32.33115639	     -0.91844986	     -9.64299123	    -20.05618741	      1.71846219	     -6.65065357	      9.94780599	    -20.29516290	     -1.62610808	      2.71028804	    -25.34368245	      5.06716566	      4.81193796	     29.27392445	     -3.85646400	     -1.31291868	     -9.37147229
      0.63683333	     -0.95315003	      0.60646526	     11.96747906	     -0.70346077	      0.86395655	      0.27976003	     32.46433138	     -0.57210608	     -9.40133146	    -20.97204682	      1.45544388	     -6.89971798	      9.94424038	    -19.98525371	     -1.89303925	      2.50749067	    -26.54270474	      4.14887375	      4.75375039	     29.35146823	     -3.70429372	     -0.97187617	     -9.22456609
      0.64100000	     -1.00543254	      0.42326223	     11.83433575	     -0.69679872	      0.86361418	      0.28033605	     32.66791277	     -0.24329007	     -9.11635410	    -21.94537625	      1.15162448	     -7.31123038	      9.92940910	    -19.56689767	     -2.14289094	      2.27396414	    -27.86892986	      3.35980771	      4.76313865	     29.51057448	     -3.52335867	     -0.70424913	     -8.96798679
      0.64516667	     -1.01102984	      0.21426329	     11.70099155	     -0.69007855	      0.86339750	      0.28087597	     32.80985652	      0.11126884	     -8.87922873	    -22.91612485	      1.03009594	     -7.50998612	      9.91788734	    -19.19339210	     -2.42682936	      2.05592221	    -29.16814432	      2.37994615	      4.70884623	     29.59708302	     -3.39072161	     -0.35444553	     -8.82674928
      0.64933333	     -1.05841779	      0.02363758	     11.57358461	     -0.68344297	      0.86311476	      0.28146359	     33.01688393	      0.44347837	     -8.62665747	    -23.93299017	      0.90153358	     -7.84966254	      9.86573514	    -18.70372904	     -2.70365712	      1.79854150	    -30.58923051	      1.52012410	      4.75284651	     29.82967512	     -3.21540963	     -0.07016955	     -8.55920332
      0.65350000	     -1.08268641	     -0.17653912	     11.43451782	     -0.67680720	      0.86291102	      0.28205575	     33.18495005	      0.79244298	     -8.38688151	    -24.92782407	      0.85131134	     -8.01863890	      9.81555112	    -18.22308726	     -2.99335753	      1.53816097	    -32.01283083	      0.54528147	      4.72885657	     29.97922863	     -3.07566949	      0.23512470	     -8.39896316
      0.65766667	     -1.06315284	     -0.39083502	     11.30487358	     -0.67016015	      0.86282699	      0.28262105	     33.28410582	      1.15804635	     -8.18424731	    -25.89413242	      0.92526223	     -8.13298734	      9.78745424	    -17.76751799	     -3.30884555	      1.30205055	    -33.43796081	     -0.50586139	      4.65710178	     30.03419702	     -2.98652092	      0.58851177	     -8.28813952
      0.66183333	     -1.06903813	     -0.60348466	     11.17514254	     -0.66357157	      0.86271864	      0.28321373	     33.40596657	      1.52114715	     -7.98413172	    -26.85202917	      1.02003270	     -8.25934101	      9.74934853	    -17.23725412	     -3.63221320	      1.03967111	    -34.92855352	     -1.52266036	      4.62465048	     30.07576890	     -2.86996535	      0.91904873	     -8.14275142
